<svg width="21" height="22" viewBox="0 0 21 22" fill="none" xmlns="http://www.w3.org/2000/svg">
<g clip-path="url(#clip0_27_7)">
<path fill-rule="evenodd" clip-rule="evenodd" d="M11.8 8.5C12.35 8.5 12.8 8.05 12.8 7.5V5.5H14.8C15.35 5.5 15.8 5.05 15.8 4.5C15.8 3.95 15.35 3.5 14.8 3.5H12.8V1.5C12.8 0.95 12.35 0.5 11.8 0.5C11.25 0.5 10.8 0.95 10.8 1.5V3.5H8.79999C8.24999 3.5 7.79999 3.95 7.79999 4.5C7.79999 5.05 8.24999 5.5 8.79999 5.5H10.8V7.5C10.8 8.05 11.25 8.5 11.8 8.5ZM6.79999 17.5C5.69999 17.5 4.80999 18.4 4.80999 19.5C4.80999 20.6 5.69999 21.5 6.79999 21.5C7.89999 21.5 8.79999 20.6 8.79999 19.5C8.79999 18.4 7.89999 17.5 6.79999 17.5ZM16.8 17.5C15.7 17.5 14.81 18.4 14.81 19.5C14.81 20.6 15.7 21.5 16.8 21.5C17.9 21.5 18.8 20.6 18.8 19.5C18.8 18.4 17.9 17.5 16.8 17.5ZM7.89999 12.5H15.35C16.1 12.5 16.76 12.09 17.1 11.47L20.48 5.34C20.75 4.86 20.57 4.25 20.09 3.98C19.61 3.72 19 3.89 18.74 4.37L15.35 10.5H8.32999L4.33999 2.07C4.17999 1.72 3.81999 1.5 3.43999 1.5H1.79999C1.24999 1.5 0.799988 1.95 0.799988 2.5C0.799988 3.05 1.24999 3.5 1.79999 3.5H2.79999L6.39999 11.09L5.04999 13.53C4.31999 14.87 5.27999 16.5 6.79999 16.5H17.8C18.35 16.5 18.8 16.05 18.8 15.5C18.8 14.95 18.35 14.5 17.8 14.5H6.79999L7.89999 12.5Z" fill="white"/>
</g>
<defs>
<clipPath id="clip0_27_7">
<rect width="20" height="21" fill="white" transform="translate(0.799988 0.5)"/>
</clipPath>
</defs>
</svg>
