<svg width="25" height="24" viewBox="0 0 25 24" fill="none" xmlns="http://www.w3.org/2000/svg">
<path d="M23.9464 9.76235L13.3078 0.457284C12.9619 0.154783 12.5065 -0.0089259 12.0366 0.000375732C11.5668 0.00967736 11.1189 0.19127 10.7866 0.507196L1.00213 9.80936L0.5 10.2867V24H9.92857V15.4437H15.0714V24H24.5V10.2466L23.9464 9.76235ZM12.0735 1.62981C12.0886 1.62981 12.0792 1.63292 12.0728 1.63898C12.0661 1.63292 12.0584 1.62981 12.0735 1.62981ZM22.7857 22.3702H16.7857V15.4437C16.7857 15.0114 16.6051 14.5969 16.2836 14.2912C15.9621 13.9856 15.5261 13.8139 15.0714 13.8139H9.92857C9.47392 13.8139 9.03788 13.9856 8.71639 14.2912C8.3949 14.5969 8.21429 15.0114 8.21429 15.4437V22.3702H2.21429V10.9618L12.0735 1.6596C12.0742 1.65899 12.0742 1.65843 12.0747 1.65782L22.7857 10.9618V22.3702Z" fill="#A8BED3"/>
</svg>
