<svg width="23" height="23" viewBox="0 0 23 23" fill="none" xmlns="http://www.w3.org/2000/svg">
<path d="M22.1303 4.62876C22.0634 4.5418 21.9774 4.47132 21.8789 4.42274C21.7805 4.37415 21.6723 4.34874 21.5625 4.34845H5.12469L4.27297 1.85081C4.22496 1.70863 4.13364 1.58505 4.01181 1.4974C3.89002 1.40975 3.74382 1.36242 3.59375 1.36206H1.4375C1.24688 1.36206 1.06406 1.43778 0.929268 1.57258C0.794474 1.70737 0.71875 1.89019 0.71875 2.08081C0.71875 2.27143 0.794474 2.45425 0.929268 2.58904C1.06406 2.72384 1.24688 2.79956 1.4375 2.79956H3.07984L7.80562 16.6894C7.85425 16.8309 7.94582 16.9537 8.06761 17.0407C8.18937 17.1276 8.3352 17.1744 8.48484 17.1745H18.6875C18.8781 17.1745 19.0609 17.0988 19.1957 16.9641C19.3305 16.8293 19.4062 16.6464 19.4062 16.4558C19.4062 16.2652 19.3305 16.0824 19.1957 15.9476C19.0609 15.8128 18.8781 15.737 18.6875 15.737H8.98438L8.45969 14.1881H19.4062C19.5649 14.1889 19.7192 14.1371 19.8454 14.0409C19.9715 13.9447 20.0622 13.8094 20.1034 13.6563L22.2597 5.25408C22.2878 5.14695 22.2907 5.03475 22.2682 4.92629C22.2458 4.8178 22.1986 4.71599 22.1303 4.62876Z" fill="#0070D7"/>
<path d="M10.7812 17.7856C8.23683 17.8646 8.23683 21.5554 10.7812 21.6381C13.3256 21.5626 13.3256 17.8646 10.7812 17.7856Z" fill="#0070D7"/>
<path d="M17.038 17.7856C14.4936 17.8646 14.4936 21.5554 17.038 21.6381C19.5824 21.5626 19.5824 17.8646 17.038 17.7856Z" fill="#0070D7"/>
</svg>
