<svg width="30" height="30" viewBox="0 0 30 30" fill="none" xmlns="http://www.w3.org/2000/svg">
<path d="M15 0C6.72911 0 0 6.72911 0 15C0 23.2709 6.72911 30 15 30C23.2709 30 30 23.2709 30 15C30 6.72911 23.2709 0 15 0ZM21.4286 21.9643H8.57143C7.98 21.9643 7.5 21.4843 7.5 20.8929C7.5 20.3014 7.98 19.8214 8.57143 19.8214H21.4286C22.02 19.8214 22.5 20.3014 22.5 20.8929C22.5 21.4843 22.02 21.9643 21.4286 21.9643ZM21.4286 16.0714H8.57143C7.98 16.0714 7.5 15.5914 7.5 15C7.5 14.4086 7.98 13.9286 8.57143 13.9286H21.4286C22.02 13.9286 22.5 14.4086 22.5 15C22.5 15.5914 22.02 16.0714 21.4286 16.0714ZM21.4286 10.1786H8.57143C7.98 10.1786 7.5 9.69857 7.5 9.10714C7.5 8.51571 7.98 8.03571 8.57143 8.03571H21.4286C22.02 8.03571 22.5 8.51571 22.5 9.10714C22.5 9.69857 22.02 10.1786 21.4286 10.1786Z" fill="#0070D7"/>
</svg>
