<svg width="24" height="24" viewBox="0 0 24 24" fill="none" xmlns="http://www.w3.org/2000/svg">
<path d="M24 13.739C23.9952 13.6348 23.9647 13.5335 23.9112 13.444C23.8578 13.3545 23.7831 13.2796 23.6938 13.2259L18.3145 10.1224V3.91554C18.3129 3.80684 18.2836 3.70037 18.2293 3.60619C18.175 3.51205 18.0974 3.43335 18.0041 3.37761L12.3103 0.0838013C12.2161 0.0289158 12.109 0 12 0C11.891 0 11.7839 0.0289158 11.6897 0.0838013L6 3.36934C5.90748 3.42594 5.83059 3.50485 5.77639 3.59878C5.72218 3.69276 5.69235 3.79881 5.68966 3.90727V10.139L0.310345 13.2424C0.220332 13.2978 0.145076 13.3741 0.0910262 13.4649C0.0369766 13.5557 0.00574345 13.6583 0 13.7638V20.3349C0.000347586 20.4438 0.0291683 20.5507 0.0836069 20.6451C0.138046 20.7395 0.216211 20.818 0.310345 20.8728L6 24.1583C6.09526 24.2101 6.20193 24.2372 6.31035 24.2372C6.41876 24.2372 6.52543 24.2101 6.62069 24.1583L12 21.0507L17.3793 24.1583C17.4532 24.2008 17.5353 24.2273 17.6202 24.2358C17.7051 24.2444 17.7908 24.2349 17.8717 24.208C17.9154 24.1939 17.9582 24.1773 18 24.1583L23.6897 20.8728C23.7838 20.818 23.862 20.7395 23.9164 20.6451C23.9708 20.5507 23.9997 20.4438 24 20.3349C24 20.3349 24 13.7597 24 13.739ZM17.6897 16.3459L13.2414 13.7638L17.6897 11.1983L22.1379 13.7638L17.6897 16.3459ZM11.3793 7.54865V12.6838L6.93103 10.139V4.98313L11.3793 7.54865ZM17.069 10.139L12.6207 12.6838V7.54865L17.069 4.98313V10.139ZM6.31035 11.219L10.7586 13.7638L6.31035 16.3459L1.86207 13.7638L6.31035 11.219ZM6.93103 17.4259L11.3793 14.8397V19.9749L6.93103 22.5528V17.4259ZM12 1.33759L16.4483 3.90727L12 6.47278L7.55172 3.90727L12 1.33759ZM1.24138 14.8397L5.68966 17.4093V22.5528L1.24138 19.9749V14.8397ZM12.6207 14.8397L17.069 17.4093V22.5528L12.6207 19.9749V14.8397ZM18.3103 22.5528V17.4093L22.7586 14.8397V19.9749L18.3103 22.5528Z" fill="#A8BED3"/>
</svg>
