<svg width="25" height="24" viewBox="0 0 25 24" fill="none" xmlns="http://www.w3.org/2000/svg">
<g clip-path="url(#clip0_27_21)">
<path d="M15.3152 13.9862V5.27155H17.5893V13.9862H15.3152Z" fill="#A8BED3"/>
<path d="M14.1351 13.9928H11.864V9.72391H14.1351V13.9928Z" fill="#A8BED3"/>
<path d="M8.41559 11.5675H10.6776V13.9872H8.41559V11.5675Z" fill="#A8BED3"/>
<path d="M10.7142 8.07676C10.5902 7.96826 10.4527 7.87619 10.3051 7.80284C10.1386 7.71904 9.96734 7.64531 9.79206 7.58205C9.67031 7.53994 9.56644 7.50103 9.48046 7.4653C9.40499 7.43499 9.33232 7.39809 9.26331 7.35504C9.21037 7.32324 9.16606 7.27893 9.13427 7.22599C9.10575 7.17286 9.09165 7.11318 9.09337 7.05291C9.09224 7.00141 9.1037 6.95042 9.12673 6.90435C9.14977 6.85828 9.18369 6.81852 9.22555 6.78851C9.35623 6.71035 9.50812 6.67514 9.65985 6.68782C9.8536 6.687 10.0468 6.70811 10.2358 6.75074C10.4004 6.78708 10.5615 6.83763 10.7174 6.90182L10.9125 6.14649C10.7912 6.09469 10.666 6.05259 10.538 6.02059C10.353 5.97398 10.1646 5.94241 9.97458 5.92617V5.27155H9.18146V5.95136C9.01446 5.97898 8.85295 6.03318 8.70308 6.11188C8.57725 6.17836 8.46596 6.26931 8.37575 6.37938C8.29243 6.48311 8.22944 6.60162 8.19007 6.72871C8.14996 6.85815 8.12979 6.99295 8.13026 7.12846C8.12426 7.27823 8.15329 7.42734 8.21503 7.56393C8.27678 7.70052 8.36953 7.82082 8.48593 7.91526C8.59535 8.00495 8.71594 8.08006 8.84469 8.13872C8.97691 8.19959 9.11224 8.2552 9.25069 8.30554C9.39333 8.35591 9.51922 8.40311 9.62836 8.44714C9.7226 8.48375 9.81322 8.52907 9.89906 8.58249C9.96356 8.6222 10.0192 8.67468 10.0627 8.73671C10.1017 8.79768 10.1214 8.86896 10.1193 8.9413C10.1219 8.99801 10.1103 9.05446 10.0856 9.10556C10.0608 9.15666 10.0238 9.2008 9.97772 9.23399C9.81621 9.3186 9.63366 9.35466 9.4521 9.33782C9.23396 9.33903 9.01675 9.30937 8.80692 9.24972C8.62652 9.19967 8.45069 9.1344 8.28134 9.0546L8.01068 9.77847C8.14912 9.8437 8.29095 9.90147 8.43556 9.95155C8.67703 10.0308 8.92775 10.0784 9.18146 10.0932V10.8422H9.97456V10.0743C10.1555 10.0487 10.3309 9.99344 10.4939 9.91074C10.6244 9.84318 10.7408 9.75135 10.837 9.64018C10.9225 9.53992 10.9868 9.42326 11.0258 9.29732C11.0632 9.17606 11.0823 9.0499 11.0824 8.923C11.0861 8.75629 11.0528 8.59084 10.9849 8.43854C10.9202 8.30076 10.8281 8.17765 10.7142 8.07676Z" fill="#A8BED3"/>
<path d="M23.1697 1.49203H2.43034C2.24324 1.49201 2.05796 1.52884 1.88509 1.60043C1.71222 1.67202 1.55515 1.77696 1.42285 1.90926C1.29054 2.04157 1.1856 2.19864 1.11401 2.37151C1.04242 2.54438 1.00559 2.72965 1.00562 2.91676V17.2375C1.00648 17.6148 1.15694 17.9765 1.42402 18.2431C1.69109 18.5097 2.05297 18.6595 2.43034 18.6598H9.53684L8.21004 22.0478C8.1899 22.0988 8.18256 22.154 8.18864 22.2086C8.19473 22.2632 8.21406 22.3154 8.24495 22.3608C8.27584 22.4061 8.31736 22.4433 8.36589 22.4689C8.41442 22.4946 8.46848 22.508 8.52338 22.508H17.0338C17.0883 22.5078 17.1419 22.4945 17.1901 22.4691C17.2384 22.4436 17.2797 22.4069 17.3106 22.362C17.3415 22.3172 17.3611 22.2655 17.3677 22.2114C17.3743 22.1573 17.3676 22.1024 17.3484 22.0514L16.0632 18.6598H23.1697C23.547 18.6595 23.9089 18.5097 24.176 18.2431C24.4431 17.9765 24.5935 17.6148 24.5944 17.2375V2.91676C24.5944 2.72965 24.5576 2.54438 24.486 2.37151C24.4144 2.19864 24.3095 2.04157 24.1772 1.90926C24.0449 1.77696 23.8878 1.67202 23.7149 1.60043C23.5421 1.52884 23.3568 1.49201 23.1697 1.49203ZM23.0644 16.1726H2.5356V3.50183C2.5252 3.40501 2.55304 3.30795 2.61317 3.23135C2.67331 3.15475 2.76098 3.10468 2.85751 3.09179H22.7413C22.8378 3.1048 22.9256 3.15486 22.9859 3.23139C23.0462 3.30792 23.0743 3.4049 23.0644 3.50183V16.1726Z" fill="#A8BED3"/>
</g>
<defs>
<clipPath id="clip0_27_21">
<rect width="24" height="24" fill="white" transform="translate(0.799988)"/>
</clipPath>
</defs>
</svg>
