<svg width="32" height="32" viewBox="0 0 32 32" fill="none" xmlns="http://www.w3.org/2000/svg">
<g id="15948335841535029670 1">
<g id="Group">
<path id="Vector" d="M13.3163 14.4715C10.8638 14.4715 8.86829 16.467 8.86829 18.9194C8.86829 21.3719 10.8635 23.3671 13.3163 23.3671C15.769 23.3671 17.7642 21.3719 17.7642 18.9194C17.7642 16.467 15.7687 14.4715 13.3163 14.4715ZM13.3163 22.4108C11.3912 22.4108 9.82491 20.8448 9.82491 18.9198C9.82491 16.9947 11.3912 15.4284 13.3163 15.4284C15.2416 15.4284 16.8076 16.9947 16.8076 18.9198C16.8076 20.8448 15.2413 22.4108 13.3163 22.4108Z" fill="black"/>
<path id="Vector_2" d="M3.95378 14.4718C3.68943 14.4718 3.47546 14.6858 3.47546 14.9501V22.8888C3.47546 23.1528 3.68943 23.3671 3.95378 23.3671C4.21812 23.3671 4.43209 23.1528 4.43209 22.8888V14.9501C4.43209 14.6858 4.21812 14.4718 3.95378 14.4718Z" fill="black"/>
<path id="Vector_3" d="M22.5279 14.4718C22.2638 14.4718 22.0496 14.6858 22.0496 14.9501V22.8888C22.0496 23.1528 22.2638 23.3671 22.5279 23.3671C22.7919 23.3671 23.0062 23.1528 23.0062 22.8888V14.9501C23.0062 14.6858 22.7922 14.4718 22.5279 14.4718Z" fill="black"/>
<path id="Vector_4" d="M30.3846 6.1039H6.9735C6.70916 6.1039 6.49519 6.31786 6.49519 6.58221V8.94794H4.35236C4.08801 8.94794 3.87405 9.1619 3.87405 9.42625V12.0563H1.50321C1.23887 12.0563 1.0249 12.2703 1.0249 12.5346V25.3046C1.0249 25.5686 1.23887 25.7829 1.50321 25.7829H24.9147C25.1787 25.7829 25.393 25.5686 25.393 25.3046V22.6745H27.7641C28.0281 22.6745 28.2424 22.4602 28.2424 22.1962V19.8305H30.3849C30.649 19.8305 30.8633 19.6162 30.8633 19.3522V6.58221C30.8629 6.31786 30.6487 6.1039 30.3846 6.1039ZM1.98153 24.8263V13.0129H24.4363V22.193C24.4363 22.194 24.436 22.1949 24.436 22.1962C24.436 22.1975 24.4363 22.1981 24.4363 22.1994V24.8263H1.98153ZM27.2855 21.7179H25.3926V12.5346C25.3926 12.2703 25.1784 12.0563 24.9143 12.0563H4.83067V9.90456H27.2855V21.7179ZM29.9063 18.8739H28.2421V9.42625C28.2421 9.1619 28.0278 8.94794 27.7638 8.94794H7.45182V7.06052H29.9063V18.8739Z" fill="black"/>
</g>
</g>
</svg>
