<svg width="23" height="23" viewBox="0 0 23 23" fill="none" xmlns="http://www.w3.org/2000/svg">
<path d="M21.458 5.72743C20.4296 3.96562 19.0347 2.57067 17.2728 1.54233C15.5106 0.514039 13.587 0 11.5003 0C9.41392 0 7.48967 0.514039 5.7278 1.54233C3.96582 2.57051 2.57088 3.96546 1.54248 5.72743C0.514039 7.48952 0 9.41377 0 11.5C0 13.5864 0.514196 15.5103 1.54233 17.2725C2.57067 19.0343 3.96562 20.4293 5.72759 21.4577C7.48967 22.486 9.41377 23.0001 11.5001 23.0001C13.5865 23.0001 15.5108 22.486 17.2728 21.4577C19.0346 20.4296 20.4295 19.0343 21.4578 17.2725C22.486 15.5105 22.9999 13.5863 22.9999 11.5C23 9.41356 22.486 7.48925 21.458 5.72743ZM18.2087 12.4583C18.2087 12.7179 18.1137 12.9428 17.924 13.1321C17.7345 13.3217 17.5098 13.4168 17.2502 13.4168H5.75004C5.49053 13.4168 5.266 13.3217 5.07625 13.1321C4.88659 12.9428 4.79177 12.7179 4.79177 12.4583V10.5415C4.79177 10.282 4.88665 10.0574 5.07625 9.86775C5.26595 9.67805 5.49048 9.58317 5.75004 9.58317H17.2502C17.5097 9.58317 17.7344 9.67805 17.924 9.86775C18.1137 10.0574 18.2087 10.282 18.2087 10.5415V12.4583Z" fill="#0070D7"/>
</svg>
