<svg width="25" height="25" viewBox="0 0 25 25" fill="none" xmlns="http://www.w3.org/2000/svg">
<path fill-rule="evenodd" clip-rule="evenodd" d="M2.77456 11.7147C1.91803 11.9792 1.44515 11.8042 1.29794 11.3159C0.976739 10.258 2.38868 8.71175 3.04 7.90609C4.93373 5.56844 7.48548 4.15853 10.1867 3.65397C9.91009 3.27962 9.74726 2.82796 9.74726 2.34375C9.74726 1.0498 10.896 0 12.3146 0C13.7333 0 14.8842 1.0498 14.8842 2.34375C14.8842 2.80558 14.737 3.2369 14.4827 3.60107C17.9914 4.16463 21.306 6.21541 23.3246 9.70866C23.8399 10.7768 23.9001 11.4644 23.2309 11.6943C23.0748 11.7472 22.8941 11.7533 22.6844 11.7228C22.3566 11.676 21.9417 11.5845 21.4889 11.381C16.2738 9.05355 15.3192 12.325 12.6804 12.3861C9.74726 12.4532 9.37922 8.70361 2.77456 11.7147ZM0.0555223 13.5701C-0.0448525 13.2548 -0.0225469 13.0554 0.204969 13.0534C1.19979 13.4054 1.83996 13.5396 2.37306 13.5295L5.70774 24.998H5.70104C4.80882 24.8108 4.08613 24.3591 3.57756 23.5738L0.0555223 13.5701ZM3.48388 13.2975C4.05936 13.0859 4.72852 12.7563 5.85049 12.4186C6.19399 12.3149 6.52189 12.2721 6.84085 12.2721L8.6989 25H6.89662H6.8877L3.48388 13.2975ZM8.04758 12.439C9.73165 12.8316 10.3361 13.5803 11.5808 14.0584C11.7035 14.1052 11.8261 14.1398 11.9488 14.1642V25H9.88109L8.04758 12.439ZM13.1288 14.1642L13.1689 14.1581C14.5541 13.9587 15.5868 13.09 16.9207 12.6587L15.1207 25H13.131V14.1642H13.1288ZM18.1319 12.4227C18.7185 12.3861 19.3743 12.4573 20.1349 12.6953C20.6301 12.852 21.0829 13.0452 21.5424 13.1958L18.1096 25H16.2984L18.1319 12.4227ZM22.6555 13.4237C23.0257 13.444 23.4205 13.4013 23.8599 13.2609C24.0785 13.1917 24.3083 13.0859 24.5626 12.9272C24.8815 12.9456 25.0979 13.0473 24.9551 13.4399L21.5045 23.3236C21.0071 24.1964 20.3134 24.7721 19.3899 25H19.2896L22.6555 13.4237Z" fill="#0070D7"/>
</svg>
