<svg width="30" height="30" viewBox="0 0 30 30" fill="none" xmlns="http://www.w3.org/2000/svg">
<path d="M19.9659 13.9998H6.03418L6.03058 14.0313C5.68258 17.7363 8.34388 20.7822 12 20.9805V24.9999L7.99978 26.0001V27H18V26.0001L14.0001 24.9999V20.9805C17.6565 20.7825 20.3175 17.7366 19.9698 14.0316L19.9659 13.9998Z" fill="#0070D7"/>
<path d="M19.7256 12L19.7226 11.9778C22.1016 11.8593 24 9.9093 24 7.5C24 5.0145 21.9852 3 19.5 3C17.1855 3 15.3018 4.7532 15.0501 7.0002H6.87719L6.27509 12H19.7256ZM19.5 4.9998C20.8779 4.9998 21.9999 6.1212 21.9999 7.5C21.9999 8.8788 20.8779 10.0002 19.5 10.0002C19.494 10.0002 19.4904 9.9978 19.4844 9.9978L19.1229 7.0002H17.0508C17.283 5.8605 18.2931 4.9998 19.5 4.9998Z" fill="#0070D7"/>
</svg>
