<svg width="30" height="24" viewBox="0 0 30 24" fill="none" xmlns="http://www.w3.org/2000/svg">
<path d="M15.8526 0.723913C14.0964 0.843313 12.2448 1.27951 10.8171 1.90651C8.70267 2.83861 6.61197 4.53481 5.94897 5.84911C5.47707 6.79891 5.44137 7.62901 5.82357 9.15241C6.26547 10.9383 5.84757 11.4522 3.09987 12.4794C1.77957 12.9693 1.17627 13.2798 0.800073 13.644C0.268473 14.1639 0.292473 14.0385 0.304173 16.4754L0.322173 18.6258L0.692673 19.008C2.03067 20.364 4.36017 21.6303 6.86307 22.365C10.4412 23.4102 15.1479 23.6133 18.5706 22.8726C23.379 21.8334 27.417 19.2411 28.9758 16.2006C29.2269 15.7047 29.4597 15.0777 29.5971 14.5101C29.6985 14.0799 29.7405 9.46261 29.6508 8.58451C29.4777 6.90601 28.8921 5.64571 27.7452 4.50481C25.2069 1.97851 20.2788 0.413412 15.8526 0.723913ZM19.5381 2.10391C22.9608 2.64151 26.031 4.13491 27.393 5.93881C29.5971 8.84791 28.2351 13.1724 24.2154 16.0335C21.9216 17.6643 18.9411 18.6975 15.405 19.0917C14.3058 19.2111 10.6683 19.1931 9.67077 19.0617C7.26957 18.7452 5.42367 18.2493 3.99627 17.5446C2.61657 16.8576 1.58907 15.8124 1.47567 14.976C1.45167 14.8029 1.47567 14.7132 1.57737 14.5818C1.73877 14.3787 2.55087 13.9845 3.63807 13.5843C5.19117 13.0107 5.87817 12.6225 6.48147 11.9895C6.86367 11.5893 7.10277 11.1354 7.19817 10.6275C7.28187 10.1676 7.23987 9.75541 7.00707 8.85331C6.77397 7.95721 6.74427 7.21651 6.91137 6.73291C7.15017 6.05791 7.80147 5.28151 8.73327 4.57051C10.6089 3.14281 12.6219 2.33041 15.0351 2.02591C16.032 1.90081 18.4989 1.94251 19.5381 2.10391Z" fill="#0070D7"/>
<path d="M16.659 3.58532C15.1419 3.70472 13.9113 3.93782 12.657 4.35002C10.5963 5.03102 9.25826 5.86112 8.78636 6.74522C8.67896 6.94232 8.65496 7.08572 8.65496 7.52162C8.66096 8.00552 8.68496 8.11892 8.88776 8.62652C9.26996 9.58232 9.24626 10.5558 8.81006 11.4639C8.30246 12.5391 7.49006 13.1067 5.48906 13.7814C4.39586 14.1516 4.08536 14.295 3.91226 14.5161C3.66146 14.8326 3.82856 15.3045 4.37816 15.8124C6.37916 17.664 13.0632 18.333 18.1524 17.1981C22.8234 16.1529 26.1984 13.2855 26.6046 10.0302C26.748 8.88332 26.4315 7.65872 25.7205 6.61352C24.753 5.19182 22.3935 4.07492 19.5561 3.70442C18.8511 3.60902 17.1966 3.54332 16.659 3.58532ZM19.6338 5.46692C19.9086 5.59232 19.9386 5.74772 19.8012 6.29732C19.431 7.76072 19.6518 8.85992 20.4762 9.67232C21.1035 10.2876 22.1667 10.7355 23.3016 10.8669C23.6361 10.9026 23.6781 10.9206 23.7318 11.076C23.8812 11.5119 23.457 11.9721 22.9074 11.9721C22.5729 11.9721 22.4415 11.9064 22.0653 11.5599C21.6174 11.1417 20.775 10.5804 20.3508 10.419C20.1297 10.3293 19.8609 10.2816 19.6161 10.2756C19.2876 10.2696 19.1622 10.2996 18.7797 10.4847C18.2838 10.7235 17.5611 11.2791 17.1489 11.733C16.9995 11.9001 16.7787 12.0735 16.653 12.1272C16.2528 12.2943 15.7629 12.1392 15.5778 11.7867C15.4584 11.5536 15.4704 11.4222 15.6315 11.2014C15.7392 11.04 15.8646 10.9743 16.3005 10.8309C17.4951 10.4367 18.4269 9.83942 18.666 9.31382C18.8871 8.84192 18.7437 7.05002 18.4509 6.47042C18.2598 6.10022 18.4749 5.72972 19.0302 5.49092C19.2693 5.38922 19.4427 5.37722 19.6338 5.46692Z" fill="#0070D7"/>
</svg>
