<svg width="25" height="24" viewBox="0 0 25 24" fill="none" xmlns="http://www.w3.org/2000/svg">
<path d="M24.6721 14.1883C24.6216 14.0846 24.5304 14.0066 24.42 13.9729C24.31 13.94 24.1908 13.9529 24.0908 14.0104C23.3771 14.42 22.5158 14.7779 21.5404 15.0821C23.2399 12.5987 23.6096 9.33623 22.6379 5.36123V5.36079C22.3716 4.27329 21.7746 3.47661 20.9571 3.11748C20.5771 2.95039 20.1867 2.87622 19.7933 2.89663C19.5971 2.55498 19.2196 1.73286 19.1662 0.404544C19.1579 0.192483 18.9912 0.0208037 18.7795 0.00537399C18.0954 -0.0429659 16.6871 0.216214 16.2691 1.54619C16.2129 1.72534 16.2833 1.92036 16.4412 2.02163C16.4562 2.0312 17.945 3.0208 17.9167 4.16162C17.9154 4.2208 17.8892 5.62329 18.3921 6.46787C18.4062 6.4916 19.7208 8.79703 17.2313 12.1887C16.4383 10.905 15.0333 10.0408 13.4242 10.0091C13.6346 9.47661 13.75 8.91079 13.75 8.33789C13.75 5.81079 11.6938 3.75454 9.16665 3.75454C6.63955 3.75454 4.5833 5.81079 4.5833 8.33789C4.5833 9.0958 4.7687 9.82666 5.12246 10.4862C3.25747 10.8025 1.71538 12.3283 1.34453 14.2433C1.19453 14.1675 1.04829 14.09 0.909131 14.0104C0.809131 13.9529 0.689941 13.94 0.57998 13.9729C0.46958 14.0066 0.37832 14.0846 0.327881 14.1883C0.1104 14.6313 0 15.0858 0 15.5404C0 17.0721 1.25708 18.4446 3.33335 19.4608V22.9212C3.33335 23.1512 3.52002 23.3379 3.75 23.3379H21.25C21.48 23.3379 21.6667 23.1512 21.6667 22.9212V19.4608C23.7429 18.4446 25 17.0721 25 15.5404C25 15.0858 24.8896 14.6313 24.6721 14.1883ZM10 12.8921C10.0425 12.8087 10.0858 12.7263 10.1334 12.6471C10.1809 12.5688 10.2317 12.4938 10.2846 12.4196C10.3259 12.3608 10.3688 12.3033 10.4134 12.2475C10.4796 12.1646 10.5488 12.0846 10.6217 12.0079C10.6584 11.9691 10.6963 11.9316 10.7347 11.8946C10.8197 11.8129 10.9067 11.7337 10.9988 11.66C11.0309 11.6346 11.0643 11.6108 11.0967 11.5863C11.1976 11.5113 11.3005 11.4392 11.408 11.3746C11.4384 11.3563 11.4705 11.3404 11.5017 11.323C11.6138 11.26 11.728 11.1996 11.8467 11.1484C11.8805 11.1338 11.9159 11.123 11.9505 11.1092C12.0696 11.0617 12.1896 11.0163 12.3143 10.9809C12.3513 10.9705 12.3901 10.9655 12.4272 10.9564C12.5514 10.9251 12.6755 10.8951 12.8039 10.8772C12.8047 10.8768 12.8055 10.8759 12.8068 10.8759C12.9793 10.8518 13.1551 10.838 13.3334 10.838C14.8831 10.838 16.2164 11.783 16.7872 13.1272C16.8047 13.1692 16.818 13.2126 16.8343 13.2551C16.9926 13.6697 17.0834 14.118 17.0834 14.588C17.0834 14.7217 17.0751 14.8538 17.0609 14.9855C17.0563 15.028 17.048 15.0701 17.0417 15.1122C17.0292 15.2009 17.0151 15.2893 16.9963 15.3768C16.9855 15.4259 16.9718 15.4747 16.9588 15.5238C16.938 15.6034 16.9155 15.6826 16.8893 15.7609C16.8722 15.8117 16.8534 15.8622 16.8343 15.9122C16.8201 15.9497 16.803 15.9867 16.7876 16.0238C15.7988 16.1342 14.7692 16.2043 13.7197 16.2351C13.6588 16.2367 13.5988 16.2397 13.5376 16.2409C13.053 16.2529 12.5643 16.2555 12.0734 16.2501C12.006 16.2496 11.938 16.2488 11.8709 16.248C11.3443 16.2396 10.8155 16.2225 10.2864 16.1938C10.2939 16.1642 10.2964 16.1346 10.3026 16.105C10.3293 15.9871 10.351 15.8692 10.3676 15.7501C10.3747 15.703 10.3822 15.6555 10.3872 15.608C10.4051 15.4467 10.4168 15.2855 10.4168 15.1234C10.4168 14.9509 10.4056 14.7805 10.3868 14.6122C10.3818 14.5676 10.3727 14.5234 10.3664 14.4788C10.3485 14.3538 10.3281 14.2301 10.3006 14.108C10.2885 14.0534 10.2731 14.0001 10.2589 13.9463C10.2306 13.8371 10.1994 13.7292 10.1631 13.6234C10.1418 13.5609 10.1193 13.4997 10.0956 13.438C10.0598 13.3459 10.021 13.2559 9.97978 13.1668C9.96103 13.1255 9.94687 13.0826 9.92686 13.0422C9.95 12.9913 9.975 12.9417 10 12.8921ZM8.75 8.33794C8.75 8.56792 8.56333 8.75459 8.33335 8.75459C8.10337 8.75459 7.9167 8.56792 7.9167 8.33794C7.9167 8.10796 8.10337 7.92129 8.33335 7.92129C8.56333 7.92124 8.75 8.10791 8.75 8.33794ZM7.91665 6.25459C8.14663 6.25459 8.3333 6.44126 8.3333 6.67124C8.3333 6.90122 8.14663 7.08789 7.91665 7.08789C7.68667 7.08789 7.5 6.90122 7.5 6.67124C7.5 6.44126 7.68667 6.25459 7.91665 6.25459ZM7.5 9.17124C7.72998 9.17124 7.91665 9.35791 7.91665 9.58789C7.91665 9.81787 7.72998 10.0045 7.5 10.0045C7.27002 10.0045 7.08335 9.81787 7.08335 9.58789C7.08335 9.35791 7.27002 9.17124 7.5 9.17124ZM6.66665 7.50459C6.89663 7.50459 7.0833 7.69126 7.0833 7.92124C7.0833 8.15122 6.89663 8.33789 6.66665 8.33789C6.43667 8.33789 6.25 8.15127 6.25 7.92124C6.25 7.69121 6.43667 7.50459 6.66665 7.50459ZM2.13833 14.6059C2.13374 14.6038 2.12915 14.6021 2.125 14.6001C2.38335 12.7305 3.99043 11.2546 5.83335 11.2546C5.83501 11.2546 5.83667 11.2551 5.83833 11.2551H5.83872C5.98496 11.2551 6.12788 11.2684 6.26997 11.2847C6.35122 11.2951 6.43164 11.3084 6.51162 11.3243C6.54956 11.331 6.58706 11.3393 6.62456 11.3476C7.55957 11.5643 8.37539 12.153 8.9125 12.9497C8.95752 13.0201 9.00249 13.0905 9.04419 13.1643C9.06294 13.1968 9.08335 13.2281 9.10127 13.2605C9.17754 13.3997 9.24458 13.5431 9.30293 13.6889C9.30791 13.7014 9.31211 13.7143 9.3167 13.7268C9.3667 13.8551 9.40879 13.986 9.44502 14.1181C9.45337 14.1501 9.46167 14.1822 9.46958 14.2147C9.49834 14.3318 9.52041 14.4501 9.53833 14.5689C9.54331 14.6039 9.55 14.6385 9.55415 14.6739C9.57207 14.823 9.5833 14.9734 9.5833 15.1235C9.5833 15.2751 9.56997 15.4268 9.55078 15.5781C9.54663 15.6131 9.54204 15.6481 9.53662 15.6827C9.51328 15.8318 9.48286 15.9806 9.44121 16.1277C9.43994 16.1318 9.43872 16.1356 9.43745 16.1397C9.43452 16.1397 9.43159 16.1393 9.4291 16.1389C9.18325 16.1202 8.94409 16.0964 8.7041 16.0731C8.63618 15.9352 8.49741 15.8381 8.33325 15.8381C8.20117 15.8381 8.08867 15.9035 8.0124 15.9993C5.71709 15.7304 3.7125 15.2587 2.13833 14.6059ZM20.8333 22.5046H4.16665V19.8483C5.16748 20.2492 6.30166 20.5646 7.51997 20.7979C7.55874 20.8058 7.5979 20.8133 7.63706 20.8208C7.87749 20.8654 8.12041 20.9066 8.36704 20.9445C8.52871 20.97 8.6916 20.9941 8.85664 21.0162C8.98955 21.0337 9.12246 21.0512 9.25708 21.067C9.52373 21.0987 9.79458 21.1262 10.0683 21.15C10.1596 21.1575 10.2512 21.1646 10.3429 21.1716C10.6516 21.1954 10.9637 21.2146 11.2804 21.2283C11.3333 21.2304 11.3866 21.2316 11.4396 21.2337C11.7891 21.2462 12.142 21.2546 12.5 21.2546C12.8579 21.2546 13.2108 21.2462 13.5604 21.2337C13.6133 21.2316 13.6666 21.2304 13.7195 21.2283C14.0362 21.2146 14.3483 21.1954 14.657 21.1716C14.7487 21.1646 14.8404 21.1575 14.9316 21.15C15.2053 21.1262 15.4762 21.0987 15.7428 21.067C15.8774 21.0512 16.0103 21.0337 16.1433 21.0162C16.3083 20.9941 16.4712 20.97 16.6329 20.9445C16.8795 20.9066 17.1225 20.8654 17.3625 20.8208C17.4021 20.8133 17.4412 20.8054 17.4804 20.7979C18.6983 20.5646 19.8325 20.2492 20.8333 19.8483V22.5046H20.8333Z" fill="#0070D7"/>
</svg>
