<svg width="24" height="24" viewBox="0 0 24 24" fill="none" xmlns="http://www.w3.org/2000/svg">
<path fill-rule="evenodd" clip-rule="evenodd" d="M11.8 0.300003C5.45199 0.300003 0.299988 5.452 0.299988 11.8C0.299988 18.148 5.45199 23.3 11.8 23.3C18.148 23.3 23.3 18.148 23.3 11.8C23.3 5.452 18.148 0.300003 11.8 0.300003ZM16.4 12.95H12.95V16.4C12.95 17.0325 12.4325 17.55 11.8 17.55C11.1675 17.55 10.65 17.0325 10.65 16.4V12.95H7.19999C6.56749 12.95 6.04999 12.4325 6.04999 11.8C6.04999 11.1675 6.56749 10.65 7.19999 10.65H10.65V7.2C10.65 6.5675 11.1675 6.05 11.8 6.05C12.4325 6.05 12.95 6.5675 12.95 7.2V10.65H16.4C17.0325 10.65 17.55 11.1675 17.55 11.8C17.55 12.4325 17.0325 12.95 16.4 12.95Z" fill="#9E9E9E"/>
</svg>
