<svg width="25" height="6" viewBox="0 0 25 6" fill="none" xmlns="http://www.w3.org/2000/svg">
<g id="&#240;&#159;&#166;&#134; icon &#34;ellipsis&#34;">
<path id="Vector" d="M5.32871 2.65112C5.32871 1.17973 4.14898 0 2.65112 0C1.17973 0 0 1.17973 0 2.65112C0 4.12251 1.17973 5.30224 2.65112 5.30224C4.14898 5.30224 5.32871 4.12251 5.32871 2.65112ZM15.1379 2.65112C15.1379 1.17973 13.9714 0 12.5 0C11.0286 0 9.86217 1.17973 9.86217 2.65112C9.86217 4.12251 11.0286 5.30224 12.5 5.30224C13.9714 5.30224 15.1379 4.12251 15.1379 2.65112ZM25 2.65112C25 1.17973 23.807 0 22.3489 0C20.8511 0 19.6713 1.17973 19.6713 2.65112C19.6713 4.12251 20.8511 5.30224 22.3489 5.30224C23.807 5.30224 25 4.12251 25 2.65112Z" fill="#8D929E"/>
</g>
</svg>
