<svg width="21" height="21" viewBox="0 0 21 21" fill="none" xmlns="http://www.w3.org/2000/svg">
<g id="&#240;&#159;&#166;&#134; icon &#34;plus circle&#34;">
<path id="Vector" d="M10.5 21C4.76623 21 0 16.2441 0 10.5C0 4.76618 4.7765 0 10.5103 0C16.2545 0 21 4.76618 21 10.5C21 16.2441 16.2441 21 10.5 21ZM10.5 19.25C15.3589 19.25 19.2398 15.3588 19.2398 10.5C19.2398 5.65146 15.3691 1.75001 10.5103 1.75001C5.66183 1.75001 1.76037 5.65146 1.75001 10.5C1.73969 15.3588 5.65151 19.25 10.5 19.25ZM10.5309 15.3897C9.97505 15.3897 9.64564 15.0088 9.64564 14.4118V11.3647H6.42356C5.84713 11.3647 5.44565 11.0661 5.44565 10.5206C5.44565 9.96468 5.82654 9.6456 6.42356 9.6456H9.64564V6.41324C9.64564 5.80589 9.97505 5.43533 10.5309 5.43533C11.0765 5.43533 11.375 5.82649 11.375 6.41324V9.6456H14.5868C15.1942 9.6456 15.575 9.96468 15.575 10.5206C15.575 11.0661 15.1633 11.3647 14.5868 11.3647H11.375V14.4118C11.375 14.9882 11.0765 15.3897 10.5309 15.3897Z" fill="black"/>
</g>
</svg>
