<svg width="25" height="25" viewBox="0 0 25 25" fill="none" xmlns="http://www.w3.org/2000/svg">
<g id="&#240;&#159;&#166;&#134; icon &#34;person badge plus&#34;">
<path id="Vector" d="M15.2349 10.3691C17.897 10.3691 20.0671 7.99773 20.0671 5.11187C20.0671 2.24834 17.9194 0 15.2349 0C12.5839 0 10.4027 2.29306 10.4027 5.1342C10.4138 8.00894 12.5839 10.3691 15.2349 10.3691ZM15.2349 8.68011C13.6017 8.68011 12.2035 7.11409 12.2035 5.1342C12.2035 3.18791 13.5794 1.68905 15.2349 1.68905C16.9127 1.68905 18.2661 3.16558 18.2661 5.11187C18.2661 7.09171 16.8903 8.68011 15.2349 8.68011ZM15.2349 11.7562C13.2102 11.7562 11.4429 12.2259 10.0112 12.9866C10.4809 13.3557 10.906 13.7807 11.2751 14.2729C12.3713 13.7695 13.7024 13.4452 15.2349 13.4452C20.3578 13.4452 23.199 16.8791 23.199 18.7136C23.199 18.9485 23.0872 19.0268 22.7962 19.0268H12.897C12.8859 19.6085 12.7852 20.1789 12.6174 20.7158H22.2595C24.1162 20.7158 25 20.1565 25 18.9261C25 15.9955 21.2974 11.7562 15.2349 11.7562ZM5.68228 24.4407C8.76954 24.4407 11.3646 21.8568 11.3646 18.7583C11.3646 15.6375 8.80309 13.076 5.68228 13.076C2.57269 13.076 0 15.6375 0 18.7583C0 21.8791 2.57269 24.4407 5.68228 24.4407ZM5.6935 22.4496C5.30196 22.4496 4.95523 22.1811 4.95523 21.7561V19.4407H2.81876C2.43843 19.4407 2.12526 19.1275 2.12526 18.7583C2.12526 18.378 2.43843 18.0648 2.81876 18.0648H4.95523V15.7494C4.95523 15.3243 5.30196 15.0671 5.6935 15.0671C6.07382 15.0671 6.42055 15.3243 6.42055 15.7494V18.0648H8.55702C8.93734 18.0648 9.2393 18.378 9.2393 18.7583C9.2393 19.1275 8.93734 19.4407 8.55702 19.4407H6.42055V21.7561C6.42055 22.1811 6.07382 22.4496 5.6935 22.4496Z" fill="#0070D7"/>
</g>
</svg>
