<svg width="25" height="24" viewBox="0 0 25 24" fill="none" xmlns="http://www.w3.org/2000/svg">
<g id="&#240;&#159;&#166;&#134; icon &#34;printer&#34;">
<path id="Vector" d="M3.29793 20.5511H4.45993V21.7795C4.45993 23.2514 5.17925 23.8933 6.57371 23.8933H18.4263C19.8318 23.8933 20.54 23.2514 20.54 21.7795V20.5511H21.7131C23.8602 20.5511 25 19.4666 25 17.3085V6.94994C25 4.80301 23.8602 3.7074 21.7131 3.7074H20.6175V3.12086C20.6175 0.962832 19.544 0 17.4856 0H7.51439C5.57768 0 4.38249 0.962832 4.38249 3.12086V3.7074H3.29793C1.25058 3.7074 0 4.80301 0 6.94994V17.3085C0 19.4666 1.1399 20.5511 3.29793 20.5511ZM6.09784 2.99913C6.09784 2.06949 6.57371 1.61577 7.49225 1.61577H17.5078C18.4373 1.61577 18.9022 2.06949 18.9022 2.99913V3.7074H6.09784V2.99913ZM3.27578 18.8911C2.29085 18.8911 1.78179 18.371 1.78179 17.3971V6.86146C1.78179 5.88753 2.29085 5.36742 3.27578 5.36742H21.7354C22.709 5.36742 23.2183 5.88753 23.2183 6.86146V17.3971C23.2183 18.371 22.709 18.8911 21.7354 18.8911H20.54V12.251C20.54 10.7791 19.8318 10.1372 18.4263 10.1372H6.57371C5.24569 10.1372 4.45993 10.7791 4.45993 12.251V18.8911H3.27578ZM7.12706 22.2333C6.54051 22.2333 6.24167 21.9455 6.24167 21.3368V12.6826C6.24167 12.085 6.54051 11.8083 7.12706 11.8083H17.884C18.4816 11.8083 18.7583 12.085 18.7583 12.6826V21.3368C18.7583 21.9455 18.4816 22.2333 17.884 22.2333H7.12706ZM8.66534 15.7924H16.3568C16.7552 15.7924 17.0429 15.4936 17.0429 15.0951C17.0429 14.7189 16.7552 14.4311 16.3568 14.4311H8.66534C8.26691 14.4311 7.96812 14.7189 7.96812 15.0951C7.96812 15.4936 8.26691 15.7924 8.66534 15.7924ZM8.66534 19.6547H16.3568C16.7552 19.6547 17.0429 19.3559 17.0429 18.9796C17.0429 18.5923 16.7552 18.2935 16.3568 18.2935H8.66534C8.26691 18.2935 7.96812 18.5923 7.96812 18.9796C7.96812 19.3559 8.26691 19.6547 8.66534 19.6547Z" fill="#8D929E"/>
</g>
</svg>
