<svg width="27" height="19" viewBox="0 0 27 19" fill="none" xmlns="http://www.w3.org/2000/svg">
<path fill-rule="evenodd" clip-rule="evenodd" d="M12 19H15C15.825 19 16.5 18.2875 16.5 17.4167C16.5 16.5458 15.825 15.8333 15 15.8333H12C11.175 15.8333 10.5 16.5458 10.5 17.4167C10.5 18.2875 11.175 19 12 19ZM0 1.58333C0 2.45417 0.675 3.16667 1.5 3.16667H25.5C26.325 3.16667 27 2.45417 27 1.58333C27 0.7125 26.325 0 25.5 0H1.5C0.675 0 0 0.7125 0 1.58333ZM6 11.0833H21C21.825 11.0833 22.5 10.3708 22.5 9.5C22.5 8.62917 21.825 7.91667 21 7.91667H6C5.175 7.91667 4.5 8.62917 4.5 9.5C4.5 10.3708 5.175 11.0833 6 11.0833Z" fill="#0070D7"/>
</svg>
