<svg width="9" height="9" viewBox="0 0 9 9" fill="none" xmlns="http://www.w3.org/2000/svg">
<path d="M4.49672 3.9531L3.05402 2.5104C2.903 2.35938 2.65815 2.35938 2.50712 2.5104C2.3561 2.66142 2.3561 2.90629 2.50712 3.05731L3.94981 4.5L2.50712 5.94269C2.3561 6.09371 2.3561 6.33858 2.50712 6.4896C2.65815 6.64062 2.903 6.64062 3.05402 6.4896L4.49672 5.0469L5.93941 6.4896C6.09043 6.64062 6.33529 6.64062 6.48632 6.4896C6.63734 6.33858 6.63734 6.09371 6.48632 5.94269L5.04362 4.5L6.48633 3.05731C6.63735 2.90629 6.63735 2.66142 6.48633 2.5104C6.3353 2.35938 6.09044 2.35938 5.93942 2.5104L4.49672 3.9531ZM4.5 9C2.01472 9 0 6.98528 0 4.5C0 2.01472 2.01472 0 4.5 0C6.98528 0 9 2.01472 9 4.5C9 6.98528 6.98528 9 4.5 9Z" fill="#FABD22"/>
</svg>
