<svg width="25" height="25" viewBox="0 0 25 25" fill="none" xmlns="http://www.w3.org/2000/svg">
<path d="M23.2773 19.6953H19.9219C19.0312 15.7891 13.4961 15.7891 12.6055 19.6953H1.72266C1.51546 19.6953 1.31674 19.7776 1.17023 19.9241C1.02372 20.0706 0.941406 20.2694 0.941406 20.4766C0.941406 20.6838 1.02372 20.8825 1.17023 21.029C1.31674 21.1755 1.51546 21.2578 1.72266 21.2578H12.6172C13.5117 25.1641 19.0469 25.1641 19.9336 21.2578H23.2773C23.4845 21.2578 23.6833 21.1755 23.8298 21.029C23.9763 20.8825 24.0586 20.6838 24.0586 20.4766C24.0586 20.2694 23.9763 20.0706 23.8298 19.9241C23.6833 19.7776 23.4845 19.6953 23.2773 19.6953ZM16.2773 22.6563C13.3945 22.5547 13.3945 18.3984 16.2773 18.2969C19.1602 18.3984 19.1602 22.5547 16.2773 22.6563Z" fill="#8D929E"/>
<path d="M23.2773 11.7188H11.1406C10.25 7.8125 4.71484 7.8125 3.82422 11.7188H1.72266C1.51546 11.7188 1.31674 11.8011 1.17023 11.9476C1.02372 12.0941 0.941406 12.2928 0.941406 12.5C0.941406 12.7072 1.02372 12.9059 1.17023 13.0524C1.31674 13.1989 1.51546 13.2812 1.72266 13.2812H3.82422C4.71484 17.1875 10.25 17.1875 11.1406 13.2812H23.2773C23.4845 13.2812 23.6833 13.1989 23.8298 13.0524C23.9763 12.9059 24.0586 12.7072 24.0586 12.5C24.0586 12.2928 23.9763 12.0941 23.8298 11.9476C23.6833 11.8011 23.4845 11.7188 23.2773 11.7188ZM7.48438 14.6797C4.60156 14.5859 4.60547 10.4102 7.48438 10.3203C10.3633 10.4141 10.3633 14.5898 7.48438 14.6797Z" fill="#8D929E"/>
<path d="M1.72266 5.30469H8.83984C9.73438 9.21094 15.2695 9.21094 16.1602 5.30469H23.2773C23.4845 5.30469 23.6833 5.22238 23.8298 5.07586C23.9763 4.92935 24.0586 4.73064 24.0586 4.52344C24.0586 4.31624 23.9763 4.11752 23.8298 3.97101C23.6833 3.8245 23.4845 3.74219 23.2773 3.74219H16.1602C15.2656 -0.164062 9.73047 -0.164062 8.83984 3.74219H1.72266C1.51546 3.74219 1.31674 3.8245 1.17023 3.97101C1.02372 4.11752 0.941406 4.31624 0.941406 4.52344C0.941406 4.73064 1.02372 4.92935 1.17023 5.07586C1.31674 5.22238 1.51546 5.30469 1.72266 5.30469ZM12.5 2.34375C15.3828 2.44531 15.3828 6.60156 12.5 6.70312C9.61719 6.60156 9.61719 2.44531 12.5 2.34375Z" fill="#8D929E"/>
</svg>
