<svg width="22" height="21" viewBox="0 0 22 21" fill="none" xmlns="http://www.w3.org/2000/svg">
<path d="M4.04809 0H6.29895V1.89039H4.04809C3.48722 1.89002 2.94915 2.10773 2.55214 2.49566C2.15596 2.88442 1.93363 3.4113 1.93402 3.9605V6.6664H1.0717e-05V3.96389C0.000680236 3.44432 0.105926 2.92998 0.30973 2.45026C0.513535 1.97055 0.811901 1.53487 1.18777 1.16815C1.56242 0.798492 2.00799 0.504994 2.49886 0.304523C2.98974 0.104051 3.51623 0.00056066 4.04809 0ZM0.562725 9.30956H20.6663C20.8156 9.31133 20.9582 9.37042 21.0635 9.4741C21.1687 9.57779 21.2282 9.71778 21.2291 9.86396V10.9694C21.2295 11.1164 21.1707 11.2577 21.0653 11.3625C20.9599 11.4673 20.8165 11.5271 20.6663 11.5289H0.562725C0.412407 11.5275 0.268764 11.4679 0.163283 11.363C0.0578018 11.2581 -0.000912159 11.1166 1.0717e-05 10.9694V9.86396C7.91963e-06 9.71751 0.059183 9.57701 0.164614 9.47313C0.270045 9.36926 0.413166 9.31045 0.562725 9.30956ZM15.6816 0H17.181C17.7116 0.000285507 18.237 0.103174 18.727 0.302761C19.2169 0.502348 19.6618 0.794706 20.0361 1.16306C20.4129 1.53025 20.7119 1.96669 20.9161 2.44733C21.1202 2.92797 21.2254 3.44335 21.2256 3.96389V6.6664H19.2985V3.96389C19.298 3.69186 19.2427 3.42259 19.1357 3.17152C19.0287 2.92045 18.8723 2.69251 18.6752 2.50075C18.4788 2.30828 18.2456 2.1556 17.9889 2.05146C17.7322 1.94731 17.4571 1.89373 17.1792 1.89379H15.6816V0ZM21.2221 13.877V16.8694C21.2185 17.9196 20.7908 18.9258 20.0324 19.6684C19.2741 20.411 18.2465 20.8298 17.1741 20.8333H15.6816V18.9429H17.181C17.7417 18.9403 18.2788 18.7209 18.6753 18.3327C19.0718 17.9444 19.2958 17.4185 19.2985 16.8694V13.877H21.2221ZM6.29202 20.8282H4.04116C2.9704 20.8269 1.94401 20.4092 1.18777 19.6669L1.13237 19.6075C0.407183 18.8728 0.00127092 17.8913 1.0717e-05 16.8694V13.877H1.93055V16.8694C1.93088 17.3998 2.13841 17.91 2.51058 18.2953L2.55387 18.3326C2.74971 18.5255 2.98249 18.6788 3.23889 18.7835C3.49529 18.8882 3.77027 18.9424 4.04809 18.9429H6.29895V20.8333L6.29202 20.8282Z" fill="#8D929E"/>
</svg>
